<svg xmlns="http://www.w3.org/2000/svg" viewBox="0 0 512 512" width="512" height="512">
  <defs>
    <linearGradient id="bg" x1="0" y1="0" x2="1" y2="1">
      <stop offset="0" stop-color="#1c2242"/>
      <stop offset="1" stop-color="#0c101d"/>
    </linearGradient>
    <radialGradient id="plum" cx="0.88" cy="0.08" r="0.65">
      <stop offset="0" stop-color="#6a4a8c" stop-opacity="0.7"/>
      <stop offset="1" stop-color="#6a4a8c" stop-opacity="0"/>
    </radialGradient>
    <radialGradient id="lamp" cx="0.2" cy="0.9" r="0.75">
      <stop offset="0" stop-color="#f0b365" stop-opacity="0.6"/>
      <stop offset="1" stop-color="#f0b365" stop-opacity="0"/>
    </radialGradient>
    <linearGradient id="wisp" x1="0" y1="0" x2="1" y2="0">
      <stop offset="0" stop-color="#f0b365"/>
      <stop offset="1" stop-color="#f0b365" stop-opacity="0"/>
    </linearGradient>
  </defs>
  <rect width="512" height="512" rx="116" fill="url(#bg)"/>
  <rect width="512" height="512" rx="116" fill="url(#plum)"/>
  <rect width="512" height="512" rx="116" fill="url(#lamp)"/>
  <g id="face">
    <path d="M112 224c26-32 62-32 88 0" fill="none" stroke="#f1e9da" stroke-width="22" stroke-linecap="round"/>
    <path d="M250 224c26-32 62-32 88 0" fill="none" stroke="#f1e9da" stroke-width="22" stroke-linecap="round"/>
    <ellipse cx="225" cy="326" rx="25" ry="31" fill="#f1e9da"/>
    <path d="M262 322c52 8 74-32 124 0" fill="none" stroke="url(#wisp)" stroke-width="18" stroke-linecap="round"/>
    <path d="M266 356c46 14 66-20 106 4" fill="none" stroke="url(#wisp)" stroke-width="13" stroke-linecap="round" opacity="0.7"/>
    <path d="M262 288c38-12 54-38 102-18" fill="none" stroke="url(#wisp)" stroke-width="11" stroke-linecap="round" opacity="0.5"/>
  </g>
</svg>
